<svg xmlns="http://www.w3.org/2000/svg" width="35" height="35" viewBox="0 0 35 35" fill="none">
  <path d="M0 17.5C0 7.83502 7.83502 0 17.5 0C27.165 0 35 7.83502 35 17.5C35 27.165 27.165 35 17.5 35C7.83502 35 0 27.165 0 17.5Z" fill="white"/>
  <path d="M18.5547 25.1965V17.1692H20.7812L21.0742 14.4153H18.5547V13.0383C18.5547 12.6282 18.6133 12.3547 18.7305 12.218C18.8672 12.0227 19.1797 11.925 19.668 11.925H21.0449V9.17114H18.8477C17.5586 9.17114 16.6211 9.48364 16.0352 10.1086C15.5078 10.6946 15.2441 11.5833 15.2441 12.7747V14.4153H13.5742V17.1692H15.2441V25.1965H18.5547Z" fill="#222426"/>
</svg>