<svg xmlns="http://www.w3.org/2000/svg" width="35" height="35" viewBox="0 0 35 35" fill="none">
  <path d="M0 17.5C0 7.83502 7.83502 0 17.5 0C27.165 0 35 7.83502 35 17.5C35 27.165 27.165 35 17.5 35C7.83502 35 0 27.165 0 17.5Z" fill="white"/>
  <path d="M19.5899 16.08C19.8312 15.7819 20.1102 15.5163 20.4199 15.2901C20.8625 15.0042 21.366 14.8261 21.8899 14.7701C22.6402 14.6492 23.4085 14.711 24.1299 14.95C24.5627 15.0971 24.9562 15.3412 25.2803 15.6635C25.6044 15.9859 25.8505 16.378 25.9999 16.8101C26.3068 17.6693 26.4526 18.5779 26.4299 19.4901C26.4299 21.1901 26.4299 22.89 26.4299 24.59C26.4418 24.6676 26.4352 24.7469 26.4108 24.8215C26.3864 24.8961 26.3447 24.9639 26.2892 25.0194C26.2337 25.0749 26.1659 25.1165 26.0913 25.141C26.0168 25.1654 25.9375 25.1719 25.8599 25.16C25.1299 25.16 24.4099 25.16 23.6799 25.16C23.2999 25.16 23.1199 24.98 23.1199 24.58C23.1199 22.97 23.1199 21.3601 23.1199 19.7501C23.1295 19.3459 23.0685 18.9433 22.9399 18.56C22.852 18.2801 22.6801 18.034 22.4475 17.8552C22.2149 17.6763 21.933 17.5732 21.6399 17.56C21.3087 17.5057 20.9688 17.5589 20.67 17.7119C20.3712 17.8648 20.1294 18.1095 19.9799 18.41C19.7366 18.8722 19.6129 19.3878 19.6199 19.9101V24.57C19.6199 25.02 19.4499 25.1901 18.9899 25.2001H16.9899C16.5699 25.2001 16.3899 25.01 16.3899 24.59V15.48C16.3899 15.05 16.5699 14.87 16.9999 14.87H18.9999C19.0788 14.8582 19.1593 14.8651 19.2351 14.89C19.3109 14.915 19.3797 14.9574 19.4362 15.0138C19.4926 15.0702 19.535 15.1391 19.5599 15.2148C19.5849 15.2906 19.5917 15.3712 19.5799 15.45L19.5899 16.08Z" fill="#222426"/>
  <path d="M14.8799 24.46C14.8799 24.97 14.7099 25.14 14.1999 25.15H12.2799C11.8199 25.15 11.6299 24.95 11.6299 24.5V15.5C11.6299 15.07 11.8299 14.87 12.2699 14.87H14.2699C14.3527 14.8584 14.4371 14.8661 14.5164 14.8927C14.5958 14.9192 14.6679 14.9638 14.727 15.0229C14.7861 15.0821 14.8307 15.1542 14.8573 15.2335C14.8838 15.3128 14.8915 15.3972 14.8799 15.48V24.46Z" fill="#222426"/>
  <path d="M13.2599 14C12.8441 14 12.4377 13.8766 12.0922 13.6454C11.7466 13.4142 11.4774 13.0857 11.3188 12.7014C11.1602 12.3171 11.1192 11.8943 11.201 11.4867C11.2828 11.079 11.4838 10.7049 11.7785 10.4116C12.0732 10.1183 12.4483 9.91908 12.8564 9.83919C13.2644 9.75929 13.6869 9.80231 14.0705 9.96279C14.454 10.1233 14.7813 10.394 15.0108 10.7406C15.2404 11.0873 15.3619 11.4943 15.3599 11.91C15.3572 12.4653 15.1348 12.9968 14.7413 13.3885C14.3477 13.7802 13.8151 14.0001 13.2599 14Z" fill="#222426"/>
</svg>