<svg width="24" height="25" viewBox="0 0 24 25" fill="none" xmlns="http://www.w3.org/2000/svg">
<g clip-path="url(#clip0_2686_419)">
<path d="M21 10.7028C21 17.7028 12 23.7028 12 23.7028C12 23.7028 3 17.7028 3 10.7028C3 8.31584 3.94821 6.02666 5.63604 4.33883C7.32387 2.651 9.61305 1.70279 12 1.70279C14.3869 1.70279 16.6761 2.651 18.364 4.33883C20.0518 6.02666 21 8.31584 21 10.7028Z" stroke="#222426" stroke-width="2" stroke-linecap="round" stroke-linejoin="round"/>
<path d="M12 13.7028C13.6569 13.7028 15 12.3596 15 10.7028C15 9.04594 13.6569 7.70279 12 7.70279C10.3431 7.70279 9 9.04594 9 10.7028C9 12.3596 10.3431 13.7028 12 13.7028Z" stroke="#222426" stroke-width="2" stroke-linecap="round" stroke-linejoin="round"/>
</g>
<defs>
<clipPath id="clip0_2686_419">
<rect width="24" height="24" fill="white" transform="translate(0 0.702789)"/>
</clipPath>
</defs>
</svg>