<svg width="248" height="93" viewBox="0 0 248 93" fill="none" xmlns="http://www.w3.org/2000/svg">
<g id="Group 3">
<g id="Vector">
<path d="M186.293 66.6367H180.624V92.8675H186.293V66.6367Z" fill="#EE0033"/>
<path d="M208.178 93H195.786C192.885 93 191.435 91.6752 191.435 89.0256V70.6111C191.435 67.9615 192.885 66.6367 195.786 66.6367H207.387C209.365 66.6367 211.079 66.9017 212.529 67.4316C213.979 67.9615 215.166 68.6239 215.957 69.4188C216.748 70.2137 217.407 71.2735 217.934 72.4658C218.462 73.6581 218.725 74.8504 218.857 75.9103C218.989 77.1026 219.121 78.2949 219.121 79.7521C219.121 81.2094 218.989 82.4017 218.857 83.594C218.725 84.7863 218.33 85.9786 217.934 87.1709C217.407 88.3633 216.879 89.4231 216.088 90.2179C215.297 91.0128 214.243 91.6752 212.924 92.2051C211.606 92.735 210.024 93 208.178 93ZM205.41 70.6111H199.213C198.29 70.6111 197.763 70.7436 197.499 71.0085C197.236 71.2735 197.104 71.8034 197.104 72.4658V87.0385C197.104 87.8333 197.236 88.2308 197.499 88.4957C197.763 88.7607 198.422 88.8932 199.213 88.8932H205.41C207.124 88.8932 208.442 88.6282 209.497 88.2308C210.551 87.8333 211.342 87.1709 212.002 86.2436C212.529 85.3162 212.924 84.3889 213.056 83.3291C213.32 82.2692 213.32 81.0769 213.32 79.6197C213.32 78.1624 213.188 76.9701 213.056 75.9103C212.793 74.8504 212.529 73.9231 212.002 72.9957C211.474 72.0684 210.683 71.406 209.497 71.0085C208.442 70.8761 207.124 70.6111 205.41 70.6111Z" fill="#EE0033"/>
<path d="M247.993 93H235.469C232.964 93 230.854 92.735 229.14 92.0726C227.426 91.4103 226.108 90.4829 225.185 89.2906C224.262 88.0983 223.603 86.641 223.208 85.1838C222.812 83.7265 222.68 81.8718 222.68 79.8846C222.68 77.8974 222.812 76.1752 223.208 74.5855C223.603 73.1282 224.262 71.6709 225.185 70.4786C226.108 69.2863 227.426 68.359 229.14 67.6966C230.854 67.0342 232.964 66.7692 235.469 66.7692H247.466V70.7436H238.105C234.414 70.7436 231.909 71.406 230.591 72.7308C229.272 74.0555 228.613 76.4402 228.613 80.0171C228.613 83.594 229.272 85.9786 230.591 87.3034C231.909 88.6282 234.414 89.2906 238.105 89.2906H247.993V93Z" fill="#EE0033"/>
<path d="M57.3562 10.3333H53.2693C51.6872 10.3333 50.237 11.6581 50.237 13.3803V44.1154C50.237 45.7051 51.5554 47.1624 53.2693 47.1624H57.3562C58.9383 47.1624 60.3885 45.8376 60.3885 44.1154V13.2479C60.3885 11.6581 59.0701 10.3333 57.3562 10.3333Z" fill="#EE0033"/>
<path d="M42.5904 10.3333C39.9537 10.3333 37.8443 11.9231 36.7896 14.1752L25.8471 37.6239C25.5834 38.1539 25.0561 39.0812 24.6606 39.0812C24.265 39.0812 23.7377 38.1539 23.474 37.6239L12.3997 14.1752C11.345 11.9231 9.10374 10.3333 6.59883 10.3333H0.00695801L17.4095 44.2479C19.1234 47.5598 22.683 47.5598 24.5287 47.5598C27.0336 47.5598 29.934 47.4274 31.5161 44.2479L48.9186 10.3333H42.5904Z" fill="#EE0033"/>
<path d="M234.941 4.63675C234.941 3.04701 233.623 1.58974 231.909 1.58974H227.822C226.24 1.58974 224.79 2.91453 224.79 4.63675V34.9744C224.79 39.6111 226.372 42.2607 229.404 44.2479C232.304 46.1026 235.469 46.8974 241.665 46.8974H244.961C246.543 46.8974 247.993 45.5727 247.993 43.8504V40.5385H245.488C243.642 40.5385 239.819 40.406 237.578 38.9487C234.678 36.9615 234.941 33.5171 234.941 31V4.63675Z" fill="#EE0033"/>
<path d="M170.341 40.8034C168.495 40.8034 164.804 40.6709 162.431 39.2137C159.53 37.2265 159.794 33.782 159.794 31.265V16.5598H169.55C171.132 16.5598 172.582 15.235 172.582 13.5128V10.2009H159.794V4.63675C159.794 3.04701 158.476 1.58974 156.762 1.58974H152.675C151.093 1.58974 149.642 2.91453 149.642 4.63675V10.2009H128.548V4.63675C128.548 3.04701 127.23 1.58974 125.516 1.58974H121.429C119.847 1.58974 118.397 2.91453 118.397 4.63675V10.2009H112.069V13.5128C112.069 15.1026 113.387 16.5598 115.101 16.5598H118.661V35.1068C118.661 39.7436 120.243 42.3932 123.275 44.3803C126.175 46.235 129.339 47.0299 135.536 47.0299H138.832C140.414 47.0299 141.864 45.7051 141.864 43.9829V40.6709H139.359C137.513 40.6709 133.822 40.5385 131.449 39.0812C128.548 37.094 128.812 33.6496 128.812 31.1325V16.5598H149.906V35.1068C149.906 39.7436 151.488 42.3932 154.52 44.3803C157.421 46.235 160.585 47.0299 166.781 47.0299H170.077C171.659 47.0299 173.109 45.7051 173.109 43.9829V40.6709H170.341V40.8034Z" fill="#EE0033"/>
<path d="M108.641 43.9829V40.8034H86.3605C82.669 40.8034 78.4502 40.406 77.1318 36.4316C76.7363 35.3718 76.4727 32.9872 76.4727 31.3974H102.972C104.818 31.3974 106.532 31.1325 107.85 30.0726C109.696 28.4829 109.959 26.3632 109.959 24.5085C109.959 19.8718 108.773 15.235 103.499 12.5855C99.2805 10.4658 93.7434 10.2009 88.4699 10.2009C84.1192 10.2009 76.3408 10.2009 71.4628 13.6453C66.453 17.0897 66.0575 22.1239 66.0575 29.0128C66.0575 33.9145 66.3212 38.9487 69.3534 42.3932C73.1767 46.6325 78.7139 47.0299 83.3282 47.0299H105.741C107.323 47.0299 108.641 45.7051 108.641 43.9829ZM99.676 22.9188C99.676 23.8462 99.4124 25.0385 97.4348 25.0385H83.0645C79.3731 25.0385 76.4727 26.7607 76.4727 28.7479V25.0385C76.6045 22.6538 76.4726 20.6667 78.582 18.6795C81.3506 16.1624 85.4376 16.2949 88.2062 16.2949C91.1066 16.2949 94.2707 16.4273 96.7756 18.0171C98.2258 18.9444 99.676 20.6667 99.676 22.9188Z" fill="#EE0033"/>
<path d="M217.671 43.9829V40.8034H195.39C191.699 40.8034 187.48 40.406 186.161 36.4316C185.766 35.3718 185.502 32.9872 185.502 31.3974H212.002C213.847 31.3974 215.561 31.1325 216.88 30.0726C218.725 28.4829 218.989 26.3632 218.989 24.5085C218.989 19.8718 217.934 15.235 212.529 12.5855C208.31 10.4658 202.773 10.2009 197.499 10.2009C193.149 10.2009 185.502 10.2009 180.492 13.6453C175.483 17.0897 175.087 22.1239 175.087 29.0128C175.087 33.9145 175.351 38.9487 178.383 42.3932C182.206 46.6325 187.743 47.0299 192.358 47.0299H214.77C216.352 47.0299 217.671 45.7051 217.671 43.9829ZM208.706 22.9188C208.706 23.8462 208.442 25.0385 206.464 25.0385H192.094C188.403 25.0385 185.502 26.7607 185.502 28.7479V25.0385C185.634 22.6538 185.502 20.6667 187.612 18.6795C190.38 16.1624 194.467 16.2949 197.236 16.2949C200.136 16.2949 203.3 16.4273 205.805 18.0171C207.255 18.9444 208.706 20.6667 208.706 22.9188Z" fill="#EE0033"/>
<path d="M57.3562 0H53.2693C51.6872 0 50.237 1.32479 50.237 3.04701V10.3333C50.5007 8.61111 52.4782 6.88889 55.2468 6.88889H57.3562C58.9383 6.88889 60.3885 5.5641 60.3885 3.84188V3.04701C60.3885 1.32479 59.0701 0 57.3562 0Z" fill="#EE0033"/>
</g>
</g>
</svg>
