<svg xmlns="http://www.w3.org/2000/svg" width="35" height="35" viewBox="0 0 35 35" fill="none">
  <path d="M0 17.5C0 7.83502 7.83502 0 17.5 0C27.165 0 35 7.83502 35 17.5C35 27.165 27.165 35 17.5 35C7.83502 35 0 27.165 0 17.5Z" fill="white"/>
  <path d="M25.1699 12.59C25.1699 12.9 25.1099 13.2 25.0699 13.5C24.9399 14.38 24.8099 15.26 24.6699 16.14C24.5299 17.02 24.3899 17.96 24.2399 18.87C24.0899 19.78 23.9599 20.63 23.8199 21.51L23.3699 24.39C23.3463 24.5716 23.3129 24.7519 23.2699 24.93C23.2268 25.0973 23.1558 25.2562 23.0599 25.4C22.9637 25.5594 22.8213 25.6858 22.6517 25.7626C22.4821 25.8393 22.2932 25.8628 22.1099 25.83C21.8286 25.7947 21.555 25.7136 21.2999 25.59C20.9479 25.4229 20.613 25.222 20.2999 24.99L18.7099 23.99C18.3699 23.76 18.0099 23.54 17.7099 23.3C17.4099 23.06 16.8599 22.72 16.4499 22.39L15.8899 22C15.7283 21.8738 15.6124 21.6982 15.5599 21.5C15.5375 21.4217 15.5312 21.3396 15.5415 21.2588C15.5519 21.178 15.5785 21.1001 15.6199 21.03C15.7047 20.8662 15.8201 20.7202 15.9599 20.6C17.4899 19.19 19.0099 17.76 20.4799 16.29C20.6665 16.1164 20.8191 15.9095 20.9299 15.68C20.9651 15.6045 20.9855 15.5231 20.9899 15.44C20.9899 15.33 20.9899 15.28 20.8299 15.27C20.7237 15.2779 20.6192 15.3015 20.5199 15.34C20.2412 15.4531 19.9762 15.5974 19.7299 15.77C19.0199 16.24 18.3099 16.71 17.6099 17.19L13.9099 19.68L13.2399 20.13C13.0918 20.2159 12.9291 20.2736 12.7599 20.3C12.4282 20.3461 12.0916 20.3461 11.7599 20.3C11.4717 20.2513 11.1876 20.1811 10.9099 20.09C10.1099 19.84 9.30991 19.58 8.50991 19.3C8.38211 19.2564 8.2753 19.1665 8.21051 19.048C8.14572 18.9295 8.12767 18.7911 8.15991 18.66C8.21572 18.5066 8.32135 18.3763 8.45991 18.29C8.67542 18.1355 8.91091 18.0111 9.15991 17.92L10.4399 17.4L11.7799 16.85C12.2799 16.64 12.7799 16.42 13.2999 16.22C13.8199 16.02 14.5699 15.7 15.1999 15.44L19.0999 13.84L20.5599 13.21L21.6499 12.76L23.1099 12.16L23.7999 11.89C24.003 11.8082 24.2212 11.7707 24.4399 11.78C24.5379 11.7699 24.637 11.781 24.7304 11.8124C24.8238 11.8438 24.9093 11.8949 24.9813 11.9622C25.0534 12.0294 25.1101 12.1113 25.1478 12.2024C25.1855 12.2934 25.2033 12.3915 25.1999 12.49C25.1924 12.524 25.1823 12.5574 25.1699 12.59Z" fill="#222426"/>
</svg>