<svg width="35" height="35" viewBox="0 0 35 35" fill="none" xmlns="http://www.w3.org/2000/svg">
<path d="M0 17.5C0 7.83502 7.83502 0 17.5 0C27.165 0 35 7.83502 35 17.5C35 27.165 27.165 35 17.5 35C7.83502 35 0 27.165 0 17.5Z" fill="white"/>
<path d="M17.1631 14.3859L17.1924 14.884L16.665 14.8254C14.79 14.591 13.1592 13.7902 11.7725 12.423L11.0986 11.7492L10.9229 12.2473C10.7275 12.7941 10.6885 13.3459 10.8057 13.9025C10.9229 14.4592 11.167 14.9328 11.5381 15.3234C11.7529 15.5383 11.8311 15.6652 11.7725 15.7043C11.7139 15.7434 11.5088 15.6945 11.1572 15.5578C10.8447 15.4602 10.6787 15.426 10.6592 15.4553C10.6396 15.4846 10.6738 15.675 10.7617 16.0266C10.8496 16.3781 10.9424 16.6516 11.04 16.8469C11.1768 17.1008 11.3721 17.3498 11.626 17.5939C11.8799 17.8381 12.1533 18.0285 12.4463 18.1652L12.9736 18.4289H12.3584C12.0654 18.4289 11.8945 18.4387 11.8457 18.4582C11.7969 18.4777 11.792 18.5461 11.8311 18.6633C11.9287 18.9953 12.1582 19.3225 12.5195 19.6447C12.8809 19.967 13.2959 20.2062 13.7646 20.3625L14.4092 20.5676L13.8525 20.9191C12.9932 21.4074 12.0654 21.6613 11.0693 21.6809C10.5029 21.7004 10.2197 21.7346 10.2197 21.7834C10.2197 21.8322 10.4639 21.9641 10.9521 22.1789C11.4404 22.3938 11.8604 22.5598 12.2119 22.677C13.3252 23.0285 14.4873 23.1359 15.6982 22.9992C16.9092 22.8625 18.0029 22.5012 18.9795 21.9152C19.6826 21.5051 20.3516 20.9289 20.9863 20.1867C21.6211 19.4445 22.0947 18.673 22.4072 17.8723C22.583 17.4426 22.7441 16.9055 22.8906 16.2609C23.0371 15.6164 23.1104 15.1086 23.1104 14.7375C23.1104 14.5031 23.1396 14.3322 23.1982 14.2248C23.2568 14.1174 23.4326 13.9172 23.7256 13.6242C24.1162 13.2531 24.3604 12.9895 24.458 12.8332C24.4971 12.7355 24.4971 12.6867 24.458 12.6867C24.4189 12.6867 24.2725 12.7258 24.0186 12.8039C23.5889 12.9602 23.335 13.0285 23.2568 13.009C23.1787 12.9895 23.2471 12.8625 23.4619 12.6281C23.6182 12.4523 23.7744 12.2424 23.9307 11.9982C24.0869 11.7541 24.165 11.593 24.165 11.5148C24.165 11.4758 24.0576 11.51 23.8428 11.6174C23.6279 11.7248 23.3154 11.8469 22.9053 11.9836L22.3486 12.1594L21.8506 11.8078C21.499 11.5734 21.2012 11.4221 20.957 11.3537C20.7129 11.2854 20.415 11.2512 20.0635 11.2512C19.7119 11.2512 19.4189 11.3 19.1846 11.3977C18.54 11.632 18.0322 12.0227 17.6611 12.5695C17.29 13.1164 17.124 13.7219 17.1631 14.3859Z" fill="#222426"/>
</svg>
