<svg xmlns="http://www.w3.org/2000/svg" width="35" height="35" viewBox="0 0 35 35" fill="none">
  <path d="M0 17.5C0 7.83502 7.83502 0 17.5 0C27.165 0 35 7.83502 35 17.5C35 27.165 27.165 35 17.5 35C7.83502 35 0 27.165 0 17.5Z" fill="white"/>
  <path d="M8.04992 20.33H11.5599C11.753 20.3152 11.9469 20.3152 12.1399 20.33C12.2551 20.3364 12.3679 20.3656 12.4717 20.4159C12.5756 20.4663 12.6683 20.5368 12.7446 20.6234C12.821 20.7099 12.8793 20.8108 12.9162 20.9201C12.9532 21.0294 12.9681 21.1449 12.9599 21.26C12.9882 21.4959 12.9221 21.7334 12.776 21.9208C12.6299 22.1081 12.4156 22.2301 12.1799 22.26C12.0236 22.2745 11.8663 22.2745 11.7099 22.26H6.78992C6.52835 22.2976 6.26358 22.3076 5.99992 22.29C5.82777 22.2598 5.66521 22.1892 5.52548 22.0842C5.38574 21.9792 5.27277 21.8427 5.19578 21.6858C5.11878 21.5289 5.07993 21.356 5.08239 21.1812C5.08484 21.0065 5.12854 20.8347 5.20992 20.68C5.31528 20.4712 5.44629 20.2764 5.59992 20.1L9.50992 15.1C9.58992 15 9.76992 14.9 9.68992 14.75C9.60992 14.6 9.44992 14.75 9.32992 14.75H6.77992C6.517 14.7384 6.2558 14.7016 5.99992 14.64C5.78428 14.6078 5.58738 14.4992 5.44506 14.334C5.30274 14.1689 5.22446 13.9581 5.22446 13.74C5.22446 13.522 5.30274 13.3112 5.44506 13.146C5.58738 12.9809 5.78428 12.8723 5.99992 12.84C6.2571 12.7919 6.51828 12.7685 6.77992 12.77H11.1999C11.4213 12.7702 11.6422 12.7902 11.8599 12.83C12.0206 12.8501 12.1739 12.9089 12.3069 13.0013C12.4398 13.0937 12.5483 13.217 12.6231 13.3606C12.6978 13.5042 12.7366 13.6638 12.736 13.8257C12.7355 13.9876 12.6956 14.147 12.6199 14.29C12.3462 14.8088 12.0104 15.2924 11.6199 15.73L8.36992 19.89L8.04992 20.33Z" fill="#222426"/>
  <path d="M20.3199 18.79C20.3199 19.6 20.3199 20.41 20.3199 21.23C20.3467 21.4657 20.2945 21.7036 20.1714 21.9063C20.0483 22.109 19.8614 22.2651 19.6399 22.35C19.4218 22.4555 19.1727 22.4781 18.9391 22.4137C18.7056 22.3493 18.5033 22.2023 18.3699 22C18.3488 21.9637 18.3196 21.9327 18.2844 21.9096C18.2493 21.8866 18.2092 21.872 18.1675 21.8672C18.1257 21.8623 18.0834 21.8673 18.0439 21.8817C18.0044 21.8961 17.9688 21.9195 17.9399 21.95C17.5186 22.2473 17.0303 22.4358 16.5185 22.4989C16.0068 22.562 15.4874 22.4976 15.0064 22.3116C14.5255 22.1256 14.098 21.8236 13.7619 21.4325C13.4258 21.0415 13.1916 20.5735 13.0799 20.07C12.8653 19.3539 12.8141 18.5987 12.9299 17.86C13.095 17.0644 13.5251 16.3482 14.15 15.8287C14.7748 15.3092 15.5575 15.0171 16.3699 15C16.9524 15.0236 17.5111 15.238 17.9599 15.61C18.1299 15.74 18.2199 15.74 18.3699 15.61C18.5096 15.401 18.7166 15.2461 18.9565 15.1712C19.1965 15.0962 19.4549 15.1057 19.6887 15.198C19.9225 15.2904 20.1176 15.4601 20.2416 15.6788C20.3655 15.8975 20.4108 16.152 20.3699 16.4C20.3199 17.14 20.3199 18 20.3199 18.79ZM18.1299 18.79C18.1385 18.4415 18.0557 18.0968 17.8899 17.79C17.7863 17.5595 17.6195 17.3631 17.409 17.2233C17.1984 17.0835 16.9526 17.0061 16.6999 17C16.4313 16.972 16.1604 17.0245 15.9218 17.1509C15.6831 17.2774 15.4875 17.472 15.3599 17.71C15.1317 18.0993 15.0336 18.5512 15.0799 19C15.0817 19.2139 15.1279 19.425 15.2158 19.6199C15.3036 19.8149 15.4311 19.9894 15.59 20.1324C15.749 20.2754 15.936 20.3837 16.1392 20.4504C16.3423 20.5172 16.5571 20.5409 16.7699 20.52C17.1755 20.4535 17.5409 20.2363 17.7931 19.9118C18.0453 19.5873 18.1656 19.1795 18.1299 18.77V18.79Z" fill="#222426"/>
  <path d="M24.2599 18.88C24.1842 18.0244 24.4196 17.1701 24.9229 16.4739C25.4262 15.7778 26.1636 15.2864 26.9999 15.09C27.6876 14.8949 28.4175 14.9065 29.0986 15.1234C29.7797 15.3404 30.3818 15.7531 30.8299 16.31C31.3094 16.8921 31.6084 17.6016 31.6902 18.3513C31.7719 19.1011 31.6328 19.8583 31.2899 20.53C31.0142 21.1666 30.5524 21.7049 29.9653 22.0743C29.3782 22.4437 28.6931 22.627 27.9999 22.6C27.5018 22.6337 27.0022 22.5608 26.5345 22.386C26.0669 22.2112 25.6418 21.9387 25.2879 21.5866C24.9339 21.2345 24.6591 20.811 24.4818 20.3443C24.3046 19.8775 24.2289 19.3783 24.2599 18.88ZM29.4699 18.78C29.4699 18.65 29.4699 18.53 29.4699 18.42C29.4459 18.0679 29.3017 17.7348 29.0614 17.4763C28.8211 17.2178 28.4993 17.0496 28.1499 17C27.7731 16.9476 27.3906 17.0434 27.0828 17.2672C26.7751 17.491 26.5662 17.8254 26.4999 18.2C26.425 18.546 26.425 18.9041 26.4999 19.25C26.5517 19.5829 26.7105 19.8899 26.9522 20.1244C27.194 20.359 27.5056 20.5084 27.8399 20.55C28.1946 20.5887 28.5512 20.4961 28.8424 20.2897C29.1335 20.0834 29.3389 19.7776 29.4199 19.43C29.4601 19.2158 29.4769 18.9979 29.4699 18.78Z" fill="#222426"/>
  <path d="M21.2799 17.24C21.2799 15.89 21.2799 14.54 21.2799 13.24C21.2448 13.1029 21.2391 12.9598 21.2634 12.8203C21.2877 12.6809 21.3413 12.5481 21.4207 12.4309C21.5001 12.3137 21.6035 12.2146 21.724 12.1404C21.8446 12.0661 21.9795 12.0183 22.1199 12C22.2892 11.9511 22.468 11.9448 22.6403 11.9816C22.8126 12.0184 22.9732 12.0972 23.1078 12.211C23.2424 12.3247 23.3467 12.47 23.4116 12.6338C23.4766 12.7977 23.5 12.975 23.4799 13.15V21.29C23.48 21.4419 23.4495 21.5921 23.3902 21.7319C23.331 21.8717 23.2441 21.9981 23.1349 22.1036C23.0257 22.209 22.8964 22.2914 22.7546 22.3458C22.6129 22.4002 22.4616 22.4254 22.3099 22.42C22.1675 22.4112 22.0282 22.374 21.9004 22.3106C21.7726 22.2472 21.6587 22.1588 21.5655 22.0507C21.4723 21.9426 21.4017 21.817 21.3578 21.6812C21.3139 21.5454 21.2976 21.4022 21.3099 21.26C21.3099 19.91 21.3099 18.56 21.3099 17.21L21.2799 17.24Z" fill="#222426"/>
</svg>