<svg width="361" height="26" viewBox="0 0 361 26" fill="none" xmlns="http://www.w3.org/2000/svg">
<path d="M7.69779 13.394C10.5242 13.394 13.4852 13.2604 16.3116 13.1267C17.523 13.1267 18.5997 12.9931 19.811 12.9931C24.9255 12.7258 30.04 12.4585 35.1544 12.1913C41.3456 11.924 47.4022 11.5231 53.5934 11.2558C62.3419 10.7212 71.0903 10.3203 79.8387 9.78572C81.8576 9.65208 83.8765 9.65208 85.8953 9.51844C91.0098 9.25116 96.1243 8.98388 101.239 8.85024C106.353 8.58295 111.468 8.31567 116.582 8.18203C118.601 8.04839 120.62 7.91475 122.639 7.91475C130.714 7.64747 138.924 7.38018 147 7.1129C151.98 6.97926 156.96 6.84563 162.074 6.57834C164.093 6.57834 165.977 6.44469 167.996 6.44469C175.802 6.31105 183.743 6.17742 191.55 6.04378C199.356 5.91014 207.028 5.77649 214.834 5.64285C216.853 5.64285 218.872 5.64285 221.025 5.64285C226.139 5.64285 231.119 5.64285 236.234 5.64285C244.175 5.64285 251.981 5.64285 259.922 5.50921C262.479 5.50921 265.036 5.50921 267.594 5.50921C272.977 5.50921 278.361 5.50921 283.745 5.50921C284.148 5.50921 284.687 5.50921 285.09 5.50921C272.977 5.64285 260.729 5.7765 248.616 6.04378C243.502 6.17742 238.522 6.17741 233.407 6.31106C231.254 6.31106 228.966 6.31105 226.812 6.44469C219.41 6.57834 212.142 6.84562 204.739 6.97926C196.26 7.24654 187.781 7.38018 179.302 7.64747C177.821 7.64747 176.475 7.7811 174.995 7.7811C170.419 8.04839 165.977 8.18203 161.401 8.44931C152.249 8.85023 143.097 9.25116 133.944 9.65208C132.599 9.65208 131.253 9.78573 129.907 9.91937C125.465 10.1867 120.889 10.5876 116.448 10.8549C108.372 11.3894 100.431 11.924 92.3557 12.4585C90.2023 12.5922 87.9142 12.8595 85.7607 12.9931C80.6463 13.394 75.5318 13.795 70.4173 14.3295C63.957 14.8641 57.362 15.3986 50.9016 15.9332C41.884 16.7351 32.7318 17.5369 23.7142 18.3387C21.5607 18.4724 19.4072 18.7397 17.1192 18.8733C13.216 19.2742 9.31289 19.6752 5.40974 20.0761C5.00596 20.0761 4.60219 20.3434 4.60219 20.8779C4.60219 21.2788 5.00596 21.6798 5.40974 21.6798C6.89024 21.6798 8.23616 21.8134 9.71666 21.8134C9.58207 22.2143 9.44748 22.6153 9.44748 23.0162C9.44748 24.4862 10.6588 25.8226 12.2739 25.8226C23.445 25.1544 34.4815 24.3526 45.6525 23.818C55.3431 23.4171 65.0337 22.8825 74.7243 22.4816C85.357 21.9471 96.1243 21.4125 106.757 21.0116C110.122 20.8779 113.487 20.7443 116.851 20.477C117.793 20.477 118.736 20.3434 119.812 20.3434C137.04 19.9424 154.268 19.4079 171.495 19.007C180.648 18.7397 189.934 18.4724 199.087 18.3387C202.451 18.2051 205.682 18.2051 209.046 18.0715C226.678 17.8042 244.309 17.5369 261.941 17.2696C269.478 17.136 277.015 17.0023 284.552 16.8687C291.013 16.7351 297.473 16.7351 303.933 16.4678C309.317 16.3341 314.566 16.0669 319.95 15.9332C322.641 15.7996 325.333 15.7996 327.891 15.6659C333.947 15.265 340.004 14.8641 346.06 14.4632C345.657 14.9977 345.657 15.7996 345.791 16.3341C345.926 17.0023 346.33 17.5369 347.003 17.8042C347.541 18.0715 348.348 18.3387 348.887 18.0715C350.233 17.5369 351.579 17.0023 352.79 16.4678C352.79 16.4678 352.79 16.4678 352.655 16.4678C352.79 16.4678 352.79 16.3341 352.925 16.3341C353.059 16.3341 353.194 16.2005 353.194 16.2005H353.059C353.732 15.9332 354.405 15.6659 355.213 15.265C355.886 14.9977 356.693 14.5968 357.366 14.3295C358.174 13.9286 358.847 13.5277 359.654 13.1267C360.462 12.7258 361 11.6567 361 10.7212C361 10.1866 360.865 9.78573 360.596 9.25116C360.327 8.7166 359.654 8.04839 358.981 7.91475C358.308 7.78111 357.635 7.64747 356.962 7.64747C356.828 7.64747 356.693 7.64747 356.559 7.64747C356.155 7.64747 355.616 7.64746 355.213 7.7811C354.136 7.91475 353.194 8.04839 352.117 8.04839C351.309 8.04839 350.502 8.18203 349.56 8.18203C347.272 8.31567 345.118 8.44932 342.83 8.7166C342.292 8.7166 341.619 8.85024 341.081 8.85024C341.35 8.58295 341.484 8.31567 341.484 8.04839C341.619 7.78111 341.619 7.51383 341.619 7.24655C341.619 7.11291 341.619 6.84562 341.753 6.71198C341.753 6.4447 341.753 6.17742 341.619 6.04378C341.619 6.04378 341.753 6.04378 341.753 5.91014C342.157 5.64286 342.561 5.37557 342.83 4.84101C343.099 4.44008 343.234 3.90552 343.234 3.37096C343.234 2.83639 343.099 2.43547 342.83 1.90091C342.696 1.76727 342.561 1.49998 342.426 1.36634C342.023 0.96542 341.619 0.831779 341.215 0.698138C340.408 0.430856 339.465 0.297211 338.523 0.297211C337.716 0.297211 337.043 0.297211 336.235 0.297211C335.158 0.297211 334.082 0.297211 333.005 0.297211C331.525 0.297211 329.909 0.297211 328.429 0.297211C324.391 0.297211 320.353 0.297211 316.316 0.297211C312.547 0.297211 308.644 0.297211 304.875 0.297211C301.376 0.297211 298.011 0.297211 294.512 0.297211C280.649 0.297211 266.921 0.430858 253.058 0.564499C242.694 0.69814 232.331 0.831777 221.967 0.831777C217.391 0.831777 212.68 0.965414 208.104 1.09905C197.741 1.36634 187.377 1.49998 177.014 1.76726C174.053 1.76726 171.092 1.90091 168.131 1.90091C166.381 1.90091 164.766 2.03455 163.016 2.03455C152.787 2.43547 142.558 2.8364 132.329 3.23732C129.234 3.37096 126.138 3.50459 122.908 3.63824C121.158 3.63824 119.409 3.77188 117.659 3.90552C107.43 4.44009 97.3356 4.97465 87.1067 5.50921C81.8576 5.77649 76.6085 6.04377 71.3595 6.44469C62.3419 6.97926 53.3242 7.51383 44.4412 8.18203C36.6349 8.7166 28.8286 9.11752 21.0223 9.51844C19.811 9.65208 18.5997 9.65208 17.2538 9.78572C15.2349 9.91936 13.216 9.91937 11.1972 10.053C9.44748 10.1866 7.69779 10.1866 5.81351 10.1866C5.67892 9.78572 5.14055 9.3848 4.73678 9.3848C3.52546 9.51844 2.44873 9.65208 1.23741 9.78572C0.699043 9.78572 0.160677 10.053 0.0260858 10.7212C-0.108505 11.3894 0.295268 12.0576 0.833633 12.1913C1.372 12.3249 1.77577 12.4585 2.31414 12.5922C2.8525 12.7258 3.25628 12.7258 3.79464 12.7258C5.14056 13.2604 6.35188 13.2604 7.69779 13.394ZM322.641 8.98388C324.257 8.98388 326.006 8.98388 327.621 8.98388C327.756 9.3848 328.025 9.65209 328.294 9.91937C327.621 9.91937 326.948 10.053 326.41 10.053C325.199 10.053 323.987 10.1866 322.776 10.1866C317.392 10.3203 312.143 10.5876 306.76 10.7212C304.337 10.8549 301.914 10.9885 299.492 10.9885C295.723 10.9885 291.82 11.1221 288.052 11.1221C279.303 11.2558 270.689 11.3894 261.941 11.5231C244.982 11.7903 228.158 12.0576 211.2 12.3249C199.087 12.4585 186.973 12.8595 174.86 13.2604C156.69 13.795 138.386 14.1959 120.216 14.7304C116.582 14.8641 112.948 14.9977 109.314 15.265C98.9507 15.7996 88.5872 16.2005 78.2236 16.7351C68.1293 17.2696 57.9003 17.6705 47.806 18.2051C46.8639 18.2051 45.9217 18.3387 44.9796 18.3387C47.6714 18.0715 50.4978 17.9378 53.1897 17.6705C62.7456 17.0023 72.3016 16.2005 81.8576 15.5323C85.2224 15.265 88.5872 14.9977 91.8174 14.7304C93.5671 14.5968 95.3167 14.4632 96.9318 14.4632C106.892 13.9286 116.851 13.2604 126.811 12.7258C128.695 12.5922 130.714 12.4585 132.599 12.3249C135.425 12.1913 138.251 12.0576 140.943 12.0576C151.172 11.6567 161.401 11.2558 171.63 10.8549C173.918 10.7212 176.206 10.7212 178.36 10.5876C178.898 10.5876 179.571 10.5876 180.109 10.5876C181.724 10.5876 183.339 10.5876 184.82 10.4539C195.049 10.1866 205.412 10.053 215.641 9.78572C220.352 9.65208 225.063 9.51844 229.773 9.51844C244.982 9.3848 260.326 9.25115 275.535 9.11751C291.551 9.11751 307.163 9.11752 322.641 8.98388Z" fill="#25324B"/>
</svg>
